<svg width="19" height="19" viewBox="0 0 19 19" fill="none" xmlns="http://www.w3.org/2000/svg">
<line y1="-0.5" x2="6.35293" y2="-0.5" transform="matrix(0.00217053 0.999998 -0.999998 0.00205779 11.6471 1)" stroke="#008CA8"/>
<line x1="18.0013" y1="6.79411" x2="11.6483" y2="6.81027" stroke="#008CA8"/>
<line x1="5.80226" y1="7.3537" x2="5.79412" y2="12.6478" stroke="#008CA8"/>
<line x1="12.1471" y1="7.35233" x2="12.1534" y2="12.6464" stroke="#008CA8"/>
<line y1="6.85294" x2="6.35294" y2="6.85294" stroke="#008CA8"/>
<line x1="6.35294" y1="6.85294" x2="11.6471" y2="6.85294" stroke="#008CA8"/>
<path d="M5.79411 1V6.73651" stroke="#008CA8"/>
<line x1="6.35294" y1="13.1471" x2="-5.72205e-06" y2="13.1471" stroke="#008CA8"/>
<line x1="11.6471" y1="13.1471" x2="6.35295" y2="13.1471" stroke="#008CA8"/>
<line x1="18" y1="13.1471" x2="11.6471" y2="13.1471" stroke="#008CA8"/>
<line x1="5.79411" y1="12.6471" x2="5.79411" y2="19" stroke="#008CA8"/>
<line x1="12.1471" y1="12.6471" x2="12.1471" y2="19" stroke="#008CA8"/>
<path d="M17.5 3.64706C17.5 4.83285 16.5387 5.79412 15.3529 5.79412C14.1672 5.79412 13.2059 4.83285 13.2059 3.64706C13.2059 2.46127 14.1672 1.5 15.3529 1.5C16.5387 1.5 17.5 2.46127 17.5 3.64706Z" stroke="#DE360B"/>
<path d="M0.181099 8.15354L4.41639 12.3888L5.1235 11.6817L0.888206 7.44643L0.181099 8.15354ZM0.888206 12.3888L5.1235 8.15354L4.41639 7.44643L0.181099 11.6817L0.888206 12.3888Z" fill="#DE360B"/>
</svg>
